PathFileType	4	(X/Y/Z)	C:\Users\Basilio\Documents\Thesis Gigler\squatting_fais\c3dfiles\058\SLS_front_pre4\markers_experimental.trc
DataRate	CameraRate	NumFrames	NumMarkers	Units	OrigDataRate	OrigDataStartFrame	OrigNumFrames
200.000000	200.000000	4	61	mm	200.000000	480	1282
Frame#	Time	FHD			LBHD			RBHD			C7			T10			CLAV			LSHO			LUUPA			LMUPA			LDUPA			LLEP			LRAD			LUL			LRFIN			RSHO			RUPA1			RMUPA			RDUPA			RLEP			RMEP			RRAD			RUL			RUFIN			LASI			RASI			USACR			LSACR			RSACR			LTHI1			LTHI2			LTHI3			LTHI4			LLFC			LMFC			LTIB1			LTIB2			LTIB3			LTIB4			LLMAL			LMMAL			LHEE			LMT1			LMT2			LMT5			RTHI			RTHI2			RTHI3			RTHI4			RLFC			RMFC			RTIB1			RTIB2			RTIB3			RTIB4			RLMAL			RMMAL			RHEE			RMT1			RMT2			RMT5			LMEP			
		X1	Y1	Z1	X2	Y2	Z2	X3	Y3	Z3	X4	Y4	Z4	X5	Y5	Z5	X6	Y6	Z6	X7	Y7	Z7	X8	Y8	Z8	X9	Y9	Z9	X10	Y10	Z10	X11	Y11	Z11	X12	Y12	Z12	X13	Y13	Z13	X14	Y14	Z14	X15	Y15	Z15	X16	Y16	Z16	X17	Y17	Z17	X18	Y18	Z18	X19	Y19	Z19	X20	Y20	Z20	X21	Y21	Z21	X22	Y22	Z22	X23	Y23	Z23	X24	Y24	Z24	X25	Y25	Z25	X26	Y26	Z26	X27	Y27	Z27	X28	Y28	Z28	X29	Y29	Z29	X30	Y30	Z30	X31	Y31	Z31	X32	Y32	Z32	X33	Y33	Z33	X34	Y34	Z34	X35	Y35	Z35	X36	Y36	Z36	X37	Y37	Z37	X38	Y38	Z38	X39	Y39	Z39	X40	Y40	Z40	X41	Y41	Z41	X42	Y42	Z42	X43	Y43	Z43	X44	Y44	Z44	X45	Y45	Z45	X46	Y46	Z46	X47	Y47	Z47	X48	Y48	Z48	X49	Y49	Z49	X50	Y50	Z50	X51	Y51	Z51	X52	Y52	Z52	X53	Y53	Z53	X54	Y54	Z54	X55	Y55	Z55	X56	Y56	Z56	X57	Y57	Z57	X58	Y58	Z58	X59	Y59	Z59	X60	Y60	Z60	X61	Y61	Z61	

481	2.4	-307.0760803222657	1767.245361328125	-620.5267333984376	-459.5070190429689	1704.721923828125	-692.5029907226564	-296.3645324707032	1774.754272460938	-762.5043334960939	-469.0600585937501	1564.8388671875	-713.3112792968751	-512.8823242187501	1260.29541015625	-709.3843994140626	-312.1466369628907	1510.618408203125	-693.9379272460939	-318.2566223144532	1567.85888671875	-845.6453857421877	-166.3643798828125	1505.794921875	-957.4895019531252	-141.5153350830078	1542.053833007813	-931.5821533203127	-97.1088790893555	1505.619262695313	-949.6140747070315	-22.24639701843262	1509.480102539063	-933.466003417969	243.2701721191407	1519.407470703125	-833.6475219726565	246.7417297363282	1543.235961914063	-911.233825683594	344.0048828125001	1543.346801757813	-832.7945556640627	-341.8041076660157	1564.762817382813	-544.2069702148439	-190.3742218017578	1482.798828125	-431.0752563476564	-166.9327850341797	1520.377319335938	-454.6296386718751	-121.5082092285157	1491.998291015625	-429.7378845214845	-53.26705551147462	1484.6220703125	-436.3093261718751	-43.22421646118165	1425.978759765625	-485.713104248047	219.2150878906251	1518.358764648438	-510.0366821289064	214.5309753417969	1530.526733398438	-429.2175292968751	310.4381713867188	1545.90771484375	-493.5450134277345	-345.0205688476563	1076.698974609375	-857.538513183594	-329.4538269042969	1049.961547851563	-621.6731567382814	-531.8514404296876	1127.831420898438	-712.7131958007814	-540.0563354492189	1098.774291992188	-742.5463256835939	-532.0040283203126	1093.033447265625	-685.6215209960939	-246.4634246826172	863.0444946289065	-937.0772705078127	-175.18896484375	818.7438964843752	-926.8325195312502	-144.1388092041016	841.092468261719	-893.5928955078127	-164.8164367675782	759.5251464843751	-923.5422973632815	-100.6041259765625	683.4083862304689	-913.289001464844	-92.60406494140626	674.8145141601564	-785.800964355469	26.64488410949708	612.4361572265626	-871.712341308594	16.74297904968262	557.8530273437501	-935.6770629882815	49.37279129028322	572.1787109375001	-908.0760498046877	101.4725112915039	509.5613403320314	-885.0289306640627	188.9481964111328	322.0389404296876	-913.1203613281252	188.7945556640625	342.4093017578126	-821.6016845703127	167.2543029785157	248.5078582763672	-867.447937011719	328.1037597656251	397.8837890625001	-828.580261230469	333.0352783203126	407.3258056640626	-874.473083496094	317.4196472167969	360.1722412109376	-932.3310546875002	-380.6732788085938	823.4609985351565	-560.6613159179689	-329.4366455078126	781.1397094726565	-560.9548950195314	-297.9970703125001	790.0004882812502	-563.1829833984376	-333.6969604492188	699.3061523437501	-582.4625854492189	-283.8241577148438	534.2342529296876	-609.9650268554689	-245.4993438720704	538.5233764648439	-739.8458251953126	-261.5912475585938	342.3151855468751	-715.2626342773439	-315.2945251464844	266.9905395507813	-656.7404785156251	-280.9532165527344	257.5389709472657	-688.6364135742189	-298.2461547851563	220.579574584961	-729.0147705078126	-378.6564941406251	121.3966293334961	-697.1734008789064	-343.2178649902344	146.1335601806641	-782.6210937500002	-445.8963317871095	107.6685943603516	-763.8609619140626	-237.5336303710938	60.42263031005861	-770.4251098632815	-232.0452575683594	59.81676864624025	-717.9735107421876	-283.8392028808594	29.93026542663575	-667.1556396484376	-17.19037246704102	1452.389282226563	-900.787536621094	
482	2.405	-306.7855224609376	1766.720825195313	-620.4255371093751	-459.5006408691407	1703.806884765625	-692.6058349609376	-296.4017944335938	1774.08935546875	-762.4992675781251	-468.9556579589845	1564.113891601563	-713.1947021484376	-513.1829833984376	1259.867919921875	-709.4035644531251	-312.2597961425782	1509.771118164063	-693.9197998046876	-318.2251281738282	1567.056396484375	-845.6643676757815	-166.3543090820313	1505.3486328125	-957.5083007812502	-141.3816680908203	1541.469604492188	-931.4542236328127	-96.95742797851565	1504.998779296875	-949.5572509765627	-22.11567878723145	1508.853881835938	-933.6450195312502	243.1646575927735	1518.766845703125	-833.7445068359377	246.7264099121094	1542.642333984375	-911.202087402344	343.2053527832032	1542.397705078125	-833.2398681640627	-341.5734252929688	1564.030517578125	-544.3637084960939	-190.1739654541016	1482.184692382813	-430.9832153320314	-166.9832916259766	1519.953735351563	-454.7994689941407	-121.2902603149414	1491.55517578125	-429.8552551269532	-53.19051742553712	1484.004760742188	-436.3037109375001	-43.19395446777344	1425.210693359375	-485.5884704589845	219.3247833251954	1517.667114257813	-510.1950988769532	214.6522827148438	1529.9140625	-429.2992248535157	310.5931091308594	1545.1630859375	-493.7304077148439	-345.4791870117188	1076.080688476563	-857.449401855469	-330.0047912597657	1049.1875	-621.6319580078126	-532.3598022460939	1127.189086914063	-712.7174682617189	-540.5439453125001	1098.167602539063	-742.6552734375001	-532.8075561523439	1092.476318359375	-685.6559448242189	-246.8853759765626	862.5456542968752	-937.0756835937502	-175.506820678711	818.3229980468752	-926.881042480469	-144.5002746582032	840.863220214844	-893.5988769531252	-165.0333862304688	759.0651245117189	-923.5300903320315	-100.73095703125	683.1063842773439	-913.3873291015627	-92.74294281005861	674.2038574218751	-785.793151855469	26.40702819824219	611.8515625000001	-871.7727661132815	16.57270240783692	557.4925537109376	-935.8650512695315	49.22431564331056	571.9321289062501	-908.307312011719	101.5500640869141	509.3708801269532	-885.3609619140627	188.9853057861328	321.9449768066407	-913.388366699219	188.8421325683594	342.1232604980469	-821.9541015625002	167.3882598876953	248.3892669677735	-867.7025146484377	328.1688537597657	397.7778625488282	-829.0532836914065	333.1481933593751	407.3157043457032	-874.8826293945315	317.3517761230469	360.0450439453126	-932.869567871094	-380.7270202636719	822.9377441406252	-560.6128540039064	-329.2446289062501	780.8964843750002	-561.0769653320314	-297.9853820800782	789.7642211914065	-563.1491088867189	-333.5525207519532	698.9599609375001	-582.5566406250001	-283.0223388671876	533.7703857421876	-609.9492187500001	-244.9657440185547	538.3195800781251	-739.8398437500001	-261.2902221679688	342.0644836425782	-715.3093261718751	-314.9386596679688	267.0358886718751	-656.7611083984376	-280.6457519531251	257.3861389160157	-688.7224731445314	-297.9087219238282	220.3830566406251	-729.0992431640626	-378.5888977050782	121.3160400390625	-697.1703491210939	-343.2405090332032	146.08349609375	-782.6253662109377	-445.8553466796876	107.6765213012696	-763.8515014648439	-237.5117797851563	60.37413787841798	-770.4136352539065	-232.0464172363282	59.78111648559572	-717.9981689453126	-283.8431091308594	29.96509552001954	-667.1289062500001	-17.47958374023438	1451.847290039063	-900.6564941406252	
483	2.41	-306.5375671386719	1766.124755859375	-620.3435668945314	-459.3912048339845	1703.239624023438	-692.5197753906251	-296.4975891113282	1773.37451171875	-762.5673217773439	-468.9503784179689	1563.566162109375	-713.1295166015626	-513.4180908203126	1259.264526367188	-709.3201293945314	-312.1495361328126	1508.985717773438	-693.9603881835939	-317.9030456542969	1566.17236328125	-845.7778320312502	-166.3976135253907	1504.794799804688	-957.4962158203127	-141.3283843994141	1540.809326171875	-931.3691406250002	-96.81716156005862	1504.458129882813	-949.587585449219	-22.08811950683594	1508.248657226563	-933.7435302734377	243.1692657470704	1518.001342773438	-833.7746582031252	246.746078491211	1542.119384765625	-911.1066894531252	343.2460937500001	1541.773803710938	-833.2807617187502	-341.5149841308594	1563.6552734375	-544.0883178710939	-190.2993469238282	1481.614013671875	-430.9003295898439	-166.9026336669922	1519.331176757813	-454.5341796875001	-121.2336807250977	1490.888305664063	-429.7309570312501	-53.17892074584962	1483.48486328125	-436.2608642578126	-43.09613418579102	1424.427368164063	-485.5709533691407	219.8448028564454	1517.15576171875	-510.3740844726564	215.0003356933594	1529.422241210938	-429.3164978027345	310.7196960449219	1544.702392578125	-493.791229248047	-345.8269958496094	1075.582275390625	-857.389099121094	-330.4339294433594	1048.441040039063	-621.5925292968751	-532.9103393554689	1126.649047851563	-712.7266235351564	-541.0771484375001	1097.554077148438	-742.6628417968751	-533.1985473632814	1092.011962890625	-685.8063354492189	-247.1617584228516	862.0450439453127	-937.1553344726565	-175.722152709961	817.9321899414065	-926.9402465820315	-144.8842315673828	840.3454589843752	-893.6558227539065	-165.331039428711	758.5894165039064	-923.720642089844	-100.9933242797852	682.7536621093751	-913.459167480469	-92.93975830078126	673.8293457031251	-785.9060058593752	26.33468055725098	611.6758422851564	-872.0708007812502	16.45500755310059	557.2968750000001	-936.0593261718752	49.03596878051759	571.7711181640626	-908.527526855469	101.6336364746094	509.3367614746095	-885.7651977539065	189.1793823242188	321.7087097167969	-913.682800292969	189.1868591308594	341.9565124511719	-822.339782714844	167.5697326660157	248.2656555175782	-867.9212646484377	328.2925109863282	397.7864990234376	-829.5853271484377	333.1715393066407	407.3233642578126	-875.3188476562502	317.3606872558594	359.9017028808594	-933.4377441406252	-380.9619140625001	822.2692871093752	-560.5543823242189	-329.1154174804688	780.573913574219	-561.0377197265626	-297.9716491699219	789.091247558594	-563.0098876953126	-333.3176879882813	698.3329467773439	-582.5683593750001	-282.4021911621094	533.2991943359376	-609.9259643554689	-244.5476379394532	538.2027587890626	-739.8736572265626	-260.9830627441407	341.8722534179688	-715.3574218750001	-314.5197448730469	266.7286376953126	-656.8341674804689	-280.5900878906251	257.3288269042969	-688.9160766601564	-297.7085876464844	220.0930480957032	-729.1589965820314	-378.5761718750001	121.2741851806641	-697.1925659179689	-343.2690734863282	146.0249328613282	-782.723083496094	-445.8505859375001	107.6714172363282	-763.8840332031251	-237.5373077392579	60.3523292541504	-770.4209594726565	-232.0472412109376	59.78457260131837	-718.0180664062501	-283.8199768066407	30.00458717346192	-667.1666870117189	-17.46358871459961	1451.58935546875	-900.776062011719	
484	2.415	-306.5889282226563	1765.052001953125	-620.7637939453126	-459.4773254394532	1702.343994140625	-692.4205932617189	-296.2431945800782	1772.551147460938	-762.5224609375001	-469.0083312988282	1562.940551757813	-713.2399902343751	-513.7484741210939	1258.610473632813	-709.2211914062501	-312.0594482421876	1508.34228515625	-693.8928833007814	-317.7082519531251	1565.758056640625	-845.7536621093752	-166.3582000732422	1504.210083007813	-957.453308105469	-141.3902587890625	1540.224487304688	-931.2836914062502	-96.88275146484378	1503.901000976563	-949.5371093750002	-22.17910766601563	1507.636474609375	-933.587585449219	243.3374176025391	1517.48486328125	-833.7070922851565	246.7810211181641	1541.602416992188	-911.1569824218752	343.3323364257813	1541.203857421875	-833.2551879882815	-341.5275268554688	1562.725830078125	-544.1929931640626	-190.1726226806641	1480.935302734375	-431.0353088378907	-166.5540008544922	1518.548095703125	-454.8636169433595	-121.3228454589844	1490.27685546875	-429.7008361816407	-53.1797218322754	1482.782958984375	-436.3375549316407	-42.93652725219727	1423.990600585938	-485.5679321289064	219.5734252929688	1516.401489257813	-510.2933349609376	214.9981384277344	1528.910034179688	-429.2675170898439	310.5529174804688	1544.053344726563	-493.7479248046876	-346.0120239257813	1074.855346679688	-857.374694824219	-331.1547851562501	1048.001708984375	-621.5200195312501	-533.0656127929689	1126.052734375	-712.8399658203126	-541.4937133789064	1096.994506835938	-742.7481079101564	-533.9066772460939	1091.182861328125	-685.7413940429689	-247.5302276611329	861.408874511719	-937.1773071289065	-176.1087646484375	817.5076293945315	-927.0153808593752	-145.1822509765625	839.9563598632815	-893.7067871093752	-165.4637298583985	758.1516113281251	-923.7866210937502	-101.0245666503907	682.4351806640626	-913.5960083007815	-92.76768493652345	673.4974365234376	-786.0875244140627	26.37184715270997	611.3446044921876	-872.3525390625002	16.35943794250489	556.9471435546876	-936.2408447265627	48.97609710693361	571.6016235351564	-908.799743652344	101.6693267822266	509.1783752441407	-886.0195312500002	189.2339324951172	321.4021606445313	-914.0776977539065	189.3650817871094	341.7895202636719	-822.6609497070315	167.6292877197266	248.0689697265626	-868.057556152344	328.3817138671876	397.9129943847657	-830.0979614257815	333.2171936035157	407.1726989746095	-875.8015136718752	317.4954833984376	359.8258972167969	-933.791687011719	-380.9154052734376	821.6096191406252	-560.4660644531251	-329.0849609375001	779.9797973632815	-561.0499877929689	-297.8930053710938	788.8393554687502	-563.0506591796876	-333.2672424316407	697.8565063476564	-582.3256225585939	-281.9651184082032	532.8891601562501	-609.9168090820314	-244.2169189453126	538.0278930664064	-739.9241943359376	-260.9130859375001	341.7234191894532	-715.5088500976564	-314.2472534179688	266.4743347167969	-656.8864746093751	-280.2541809082032	257.2498779296876	-689.1808471679689	-297.6314392089844	219.8855285644532	-729.3720092773439	-378.5169372558594	121.2587051391602	-697.2824707031251	-343.3388977050782	145.9230499267578	-782.894470214844	-445.8482971191407	107.6354751586914	-763.8848266601564	-237.5694732666016	60.29383850097658	-770.4946289062502	-231.9271697998047	59.78537368774415	-718.0759887695314	-283.7693481445313	30.11445045471192	-667.1765747070314	-17.65269088745118	1450.568481445313	-900.3867797851565	
